<svg xmlns="http://www.w3.org/2000/svg" width="18.578" height="20.402" viewBox="0 0 18.578 20.402"><defs><style>.a{fill:#6d6d6d;}</style></defs><path class="a" d="M19.28,18.583l-4.58-5.05a8.513,8.513,0,0,0,1.823-5.3A8.023,8.023,0,0,0,8.753,0,8.023,8.023,0,0,0,.984,8.237a8.023,8.023,0,0,0,7.769,8.237A7.389,7.389,0,0,0,13.2,14.984l4.615,5.088a.973.973,0,0,0,1.433.03A1.122,1.122,0,0,0,19.28,18.583ZM8.753,2.149A5.93,5.93,0,0,1,14.5,8.237a5.93,5.93,0,0,1-5.743,6.088A5.93,5.93,0,0,1,3.011,8.237,5.93,5.93,0,0,1,8.753,2.149Z" transform="translate(-0.984)"/></svg>